inDegrees=no
num_controls=7
num_derivatives=13
num_iterations=113
num_multipliers=7
num_parameters=0
num_slacks=7
num_states=26
objective=5.502123
objective_accelerations=0.799755
objective_balance=0.024058
objective_effort=0.248817
objective_height=4.402574
objective_ligament=0.026920
solver_duration=1319.079590
status=Solve_Succeeded
success=true
DataType=double
version=3
OpenSimVersion=4.4-2022-07-23-0e9fedc
endheader
time	/jointset/ground_pelvis/pelvis_tilt/value	/jointset/ground_pelvis/pelvis_tx/value	/jointset/ground_pelvis/pelvis_ty/value	/jointset/hip_l/hip_flexion_l/value	/jointset/hip_l/hip_adduction_l/value	/jointset/hip_l/hip_rotation_l/value	/jointset/back/lumbar_extension/value	/jointset/patellofemoral_l/patellar_flexion_l/value	/jointset/knee_l/knee_flexion_l/value	/jointset/knee_l/knee_adduction_l/value	/jointset/knee_l/knee_rotation_l/value	/jointset/ankle_l/ankle_angle_l/value	/jointset/subtalar_l/subtalar_angle_l/value	/jointset/ground_pelvis/pelvis_tilt/speed	/jointset/ground_pelvis/pelvis_tx/speed	/jointset/ground_pelvis/pelvis_ty/speed	/jointset/hip_l/hip_flexion_l/speed	/jointset/hip_l/hip_adduction_l/speed	/jointset/hip_l/hip_rotation_l/speed	/jointset/back/lumbar_extension/speed	/jointset/patellofemoral_l/patellar_flexion_l/speed	/jointset/knee_l/knee_flexion_l/speed	/jointset/knee_l/knee_adduction_l/speed	/jointset/knee_l/knee_rotation_l/speed	/jointset/ankle_l/ankle_angle_l/speed	/jointset/subtalar_l/subtalar_angle_l/speed	/forceset/tau_hip_flexion_l	/forceset/tau_hip_adduction_l	/forceset/tau_hip_rotation_l	/forceset/tau_knee_flexion_l	/forceset/tau_ankle_angle_l	/forceset/tau_subtalar_angle_l	/forceset/tau_lumbar_extension	lambda_cid13_p0	lambda_cid13_p1	lambda_cid13_p2	lambda_cid13_p3	lambda_cid13_p4	lambda_cid13_p5	lambda_cid14_p0	/jointset/ground_pelvis/pelvis_tilt/accel	/jointset/ground_pelvis/pelvis_tx/accel	/jointset/ground_pelvis/pelvis_ty/accel	/jointset/hip_l/hip_flexion_l/accel	/jointset/hip_l/hip_adduction_l/accel	/jointset/hip_l/hip_rotation_l/accel	/jointset/back/lumbar_extension/accel	/jointset/patellofemoral_l/patellar_flexion_l/accel	/jointset/knee_l/knee_flexion_l/accel	/jointset/knee_l/knee_adduction_l/accel	/jointset/knee_l/knee_rotation_l/accel	/jointset/ankle_l/ankle_angle_l/accel	/jointset/subtalar_l/subtalar_angle_l/accel	gamma_cid13_p0	gamma_cid13_p1	gamma_cid13_p2	gamma_cid13_p3	gamma_cid13_p4	gamma_cid13_p5	gamma_cid14_p0
1.5	-0.5847781884281302	-0.05591997239379496	0.7713287859064812	1.301657853793192	-0.3636623417066113	-0.06391282397991532	-0.35685729811732	0.6398344577878543	0.6398344577881511	-0.09424724906723908	-0.1629678316568608	0.01906402681993028	0.06301431033064586	1.126472887782447	0.5155654971193976	0.5488848123280499	-3.044751270796053	-0.01704761800884263	-0.5184584419801993	0.5829483159750544	-1.719303967920245	-1.719303967920322	-0.2245168634483143	0.09067610979044048	0.07781359537095402	0.01096267901036886	-0.218156823928168	0.001556623113990888	0.01944491466209894	-0.0775359232374663	0.04126020825916518	0.008490306526999196	0.1764169343820688	-10.78073778758593	-3.696095457348521	2.474375622622789	-8.439382514578202	-431.3542953337991	-65.07215079603358	-17.38255035600407	1.055279209027858	1.007913249486781	-0.6495983854691093	-2.098790202535973	0.4008980052269562	-0.1450246789397795	2.19087457536845	-0.8292371954639203	-0.8292371954640235	-0.04641610003754083	0.4660986548090648	0.2339966004201245	0.4784295854864858	7.017512084740901e-08	1.780577189004615e-06	-8.427142492802278e-07	3.199806015687755e-07	6.356753603035274e-07	-3.742842496473811e-07	4.18425114210003e-07
1.51	-0.5734611442255381	-0.05071445977167335	0.7767840142251561	1.271107499141038	-0.3638148780640265	-0.06910609335643565	-0.3509206197144681	0.6226017850223154	0.6226017850225608	-0.0964975442598066	-0.162041207329096	0.01985337287254115	0.06314559115788666	1.136748917095114	0.5254643165221624	0.5420356298080659	-3.064891258787121	-0.01345984624429405	-0.5201117683510713	0.6043011337579151	-1.727002729743512	-1.727002729743546	-0.2255322802781651	0.0946671814655127	0.08006123084036623	0.01529489506128822	-0.2108117068416739	0.0008616561764121319	0.02016474683562595	-0.07565576423569847	0.03762575105372144	0.006879152746958625	0.1709610413752465	-11.79864019470596	-3.031809299402605	2.612527061262502	-7.541542934707431	-426.7614209879015	-64.4273753499817	-18.00698007778403	0.9857474917132987	0.9700355259478978	-0.7212333762900895	-1.907294027775978	0.3374100666770085	-0.1625682053222878	2.094550753898536	-0.7061021131342327	-0.7061021131277986	-0.1272377196144079	0.3681538041483914	0.2210369664237232	0.4105792920083804	5.221623671169871e-08	1.973563496188498e-06	-7.109808226640774e-07	3.591226525782034e-07	6.386904585951646e-07	-3.336117238328005e-07	4.219537113506365e-07
1.52	-0.5620469431899688	-0.04541212510746937	0.7821670196804252	1.240368606422877	-0.3639315980428903	-0.07431331231449127	-0.3447730000589596	0.6052989433510425	0.6052989433512893	-0.09875762026932933	-0.1610741638086965	0.02066537326908905	0.06332018648105879	1.145904254380916	0.5349299055358725	0.5344402396470161	-3.082458883993533	-0.009884342295397332	-0.5212483582883919	0.6251365665069385	-1.733337749061817	-1.733337749061808	-0.2264730269142507	0.0987599483523012	0.08234446415866629	0.01962557819676427	-0.2034665897552618	0.0001666892387933121	0.0208845790101758	-0.07377560523400427	0.03399129384826427	0.00526799896686285	0.1655051483683497	-12.81932376832056	-2.366865553650118	2.750379369551355	-6.638428769664083	-422.2101810058087	-63.85202207924887	-18.61565624903094	0.8311408036546366	0.9212671716759673	-0.7988399136822422	-1.584317645604731	0.3984444420964272	-0.04167739222951219	2.087397568600855	-0.5564886944716437	-0.5564886944716779	-0.03148206128469826	0.4864376971522776	0.2411161701978297	0.4781230023977818	3.376417154638596e-08	2.165922220498188e-06	-5.802010337310228e-07	3.960245200886945e-07	6.418468536900625e-07	-2.911494027321433e-07	4.242099201895925e-07
1.53	-0.5505468045491932	-0.0400173794652465	0.7874704272071241	1.209466895628308	-0.3640125596178939	-0.07953033313004333	-0.3384199440368325	0.5879396507186704	0.587939650718885	-0.1010261523142243	-0.1600664853922041	0.02150042633026142	0.06353817141206494	1.153924839695336	0.5439369451709866	0.5261231955385438	-3.097434281099904	-0.006307469554782918	-0.5220907794023084	0.645364551790422	-1.7382813253553	-1.738281325355236	-0.2272052601698799	0.1027752981263638	0.08467465193709516	0.02397478155588807	-0.1960256742890137	-0.000750880476602186	0.02153726901413021	-0.07216364332558357	0.03078056088563488	0.003420679392455323	0.1599350763293943	-13.72411874379815	-1.609027307135942	2.861291782748704	-5.797809707377289	-417.7879522774847	-63.1466694056958	-19.20523438484557	0.7577563399543058	0.878170504742967	-0.8657177977774422	-1.386757273577744	0.3370116066380702	-0.09540754357576775	1.973986088756995	-0.4274594086432051	-0.4274594086348715	-0.08941330799534039	0.3588322435093951	0.2303038851450054	0.4134836707454511	1.478810153712061e-08	2.35761413800405e-06	-4.504344848362576e-07	4.305461926315653e-07	6.45153376638425e-07	-2.467854241400298e-07	4.251142164580163e-07
1.54	-0.5389724122663617	-0.03453501379761052	0.7926871480650685	1.178428909556575	-0.3640578118821886	-0.08475375477123298	-0.3318679107457653	0.5705380888610372	0.5705380888611437	-0.1033010705617674	-0.1590187037527563	0.02235904802991344	0.06379968131027682	1.160754982794532	0.5524539106184951	0.5171029058962153	-3.109713939423258	-0.002742480150402102	-0.522528523420325	0.6649320202953203	-1.741791594123034	-1.741791594122913	-0.2277502674372404	0.1067805929394971	0.08705819185472022	0.02833057163805248	-0.1885847588227953	-0.001668450191962837	0.02218995901802586	-0.07055168141713385	0.02756982792303151	0.001573359818093187	0.1543650042903885	-14.63235219604301	-0.8493404892857973	2.970486206468735	-4.94265018037464	-413.4107594047088	-62.50635920286816	-19.77239832152186	0.5930523606099379	0.823252334155029	-0.9394890204534696	-1.04516988900125	0.3960677748495972	0.03925802695054869	1.955294212883683	-0.2698271893218606	-0.2698271893217765	0.005963136368794783	0.4844267049663932	0.2517865980372618	0.4794403470058648	-3.729145168673133e-09	2.51333880506888e-06	-3.428440822984954e-07	4.579164211689647e-07	6.46563700934746e-07	-1.98364140542018e-07	4.226423833888796e-07
1.55	-0.5273356302809352	-0.0289701275521232	0.7978102214177553	1.147281757340248	-0.3640673552013921	-0.08998004247268122	-0.3251238340477997	0.553108695121423	0.5531086951213117	-0.1055801077690493	-0.1579312936553874	0.02324166431414917	0.0641048789878903	1.166399236704693	0.5604197865578231	0.5074001841775261	-3.119237395424667	0.0008326055540328763	-0.5226646668250821	0.6837447523530599	-1.743835101151291	-1.743835101151105	-0.2280236053669782	0.1106933198706414	0.08945939342911434	0.03270677803297362	-0.1813388186864592	-0.002663464588546883	0.02279803870280415	-0.06863577556818469	0.0238279730367983	-0.0003688466654675058	0.1488467591177938	-15.72978927372628	-0.02864923144724373	3.085183919543024	-3.85309285012494	-409.1776251226054	-61.75397555477431	-20.31368852457529	0.5198136667656648	0.76781997116863	-1.002271745238402	-0.8340290477910698	0.3376188313497586	-0.03005150366648086	1.82347766025007	-0.1338871114341892	-0.1338871114245276	-0.03844046907522475	0.3433185252660714	0.2334984667897163	0.4159860283246682	-2.171774763351049e-08	2.627622944451656e-06	-2.608044570851046e-07	4.770469424826692e-07	6.457892746102366e-07	-1.452681359589497e-07	4.162806621699454e-07
1.56	-0.5156484654043048	-0.02332866959777401	0.8028329459537226	1.116053751445475	-0.3640412696909429	-0.09520569180407383	-0.3181957870376523	0.5356664113811397	0.5356664113808359	-0.107860769997556	-0.1568050317212582	0.02414813492005831	0.06445369377797013	1.17083156103675	0.5677682523908701	0.4970331425524239	-3.12588467510929	0.004383285782861093	-0.5224008494089347	0.7017260827320589	-1.744369594253796	-1.744369594253546	-0.2280752717539291	0.1145509603249223	0.09182905618949169	0.03705399413147944	-0.1740928785502351	-0.003658478985195306	0.02340611838849159	-0.06671986971930957	0.02008611815055146	-0.002311053149106286	0.1433285139451032	-16.83191088905791	0.7950619951194814	3.196888131161233	-2.740101689380057	-405.0040858933092	-61.06202261525852	-20.82573153995812	0.3506664449888421	0.6997703128990446	-1.072353001736057	-0.4699346256441187	0.3911866797280707	0.1192501911314935	1.789013877135454	0.03197559582851741	0.03197559582851663	0.05029744492592262	0.4734094095937404	0.2454788352341193	0.4736422877227656	-3.907446927990372e-08	2.796199233621007e-06	-1.537870756446696e-07	4.978638542666323e-07	6.448418980308554e-07	-9.496711153139362e-08	4.134209145594207e-07
1.57	-0.503923157095196	-0.01761678874410488	0.8077488327287957	1.084773511085994	-0.3639798116073527	-0.1004274403623114	-0.31109229256081	0.5182262281155303	0.5182262281153163	-0.1101406958477878	-0.1556410973035506	0.02507821630762515	0.0648458516130648	1.174015844562507	0.5745069311934436	0.4860458711596727	-3.129684783976682	0.007892984871316327	-0.5218601408409339	0.7188151792385258	-1.743413973627247	-1.743413973627246	-0.2279076915761306	0.1182382095193633	0.09419251974553011	0.04136381524443365	-0.1666457538406547	-0.00503700414199693	0.02388377333076808	-0.0656441628990426	0.01775359704760657	-0.004512231802689593	0.1376907820685626	-17.50983057074998	1.697068616407837	3.25030717143045	-2.014635377281995	-401.1933878340812	-60.32471335160242	-21.30532828055909	0.2701911708111961	0.645875389635609	-1.126536801682492	-0.2632277583000026	0.3280210449963514	0.03512544956917782	1.645212527455068	0.1652349208986115	0.1652349208609968	0.000923552467971123	0.3165999466851612	0.232651749795076	0.407083327972221	-5.564133990324176e-08	3.032640710023577e-06	-1.554749892042979e-08	5.207887541384187e-07	6.436783336328845e-07	-4.815981229822793e-08	4.149386339594078e-07
